<svg width="88" height="105" viewBox="0 0 88 105" fill="none" xmlns="http://www.w3.org/2000/svg">
<path d="M74.625 0H13.375C6.13875 0 0.25 5.88875 0.25 13.125V105H87.75V13.125C87.75 5.88875 81.8613 0 74.625 0ZM17.75 21.875H26.5V30.625H17.75V21.875ZM26.3338 83.125H17.5838V74.375H26.3338V83.125ZM24.8856 61.25C23.0175 61.25 21.145 60.5413 19.7188 59.115L13.375 53.0206L19.4388 46.7119L24.8681 51.9269L35.95 41.0769L42.0706 47.3288L30 59.15C28.6 60.55 26.745 61.2544 24.89 61.2544L24.8856 61.25ZM70.25 83.125H35.0838V74.375H70.25V83.125ZM70.25 56.875H43.8338L52.7675 48.125H70.25V56.875ZM70.25 30.625H35.25V21.875H70.25V30.625Z" fill="black"/>
</svg>
