<svg width="106" height="105" viewBox="0 0 106 105" fill="none" xmlns="http://www.w3.org/2000/svg">
<path d="M105.5 30.625V35H0.5V30.625C0.5 18.5456 10.2956 8.75 22.375 8.75H26.75V4.375C26.75 1.96 28.71 0 31.125 0C33.54 0 35.5 1.96 35.5 4.375V8.75H70.5V4.375C70.5 1.96 72.46 0 74.875 0C77.29 0 79.25 1.96 79.25 4.375V8.75H83.625C95.7044 8.75 105.5 18.5456 105.5 30.625ZM105.5 74.375C105.5 91.2625 91.7581 105 74.875 105C57.9919 105 44.25 91.2625 44.25 74.375C44.25 57.4875 57.9919 43.75 74.875 43.75C91.7581 43.75 105.5 57.4875 105.5 74.375ZM83.625 76.9388L79.25 72.5638V65.625C79.25 63.21 77.29 61.25 74.875 61.25C72.46 61.25 70.5 63.21 70.5 65.625V74.375C70.5 75.5344 70.9594 76.65 71.7819 77.4681L77.4388 83.125C79.145 84.8313 81.9187 84.8313 83.625 83.125C85.3313 81.4187 85.3313 78.645 83.625 76.9388ZM35.5 74.375C35.5 61.9981 41.2225 50.9688 50.1519 43.75H0.5V83.125C0.5 95.2044 10.2956 105 22.375 105H50.1519C41.2225 97.7812 35.5 86.7519 35.5 74.375Z" fill="black"/>
</svg>
