<svg width="106" height="97" viewBox="0 0 106 97" fill="none" xmlns="http://www.w3.org/2000/svg">
<path d="M104.039 95.4348C103.61 95.8181 103.11 96.1132 102.567 96.3031C102.024 96.493 101.449 96.574 100.875 96.5415C100.301 96.5089 99.7389 96.3636 99.2209 96.1136C98.703 95.8637 98.2395 95.5141 97.8568 95.0848C91.4924 87.9468 87.983 78.713 87.9999 69.1498V57.2498H76.2486C71.9542 54.3909 66.9089 52.8685 61.7499 52.8748H17.9999C13.4047 52.8703 8.8896 54.0775 4.90989 56.3748V39.7498C4.89162 35.8787 6.17102 32.1131 8.54378 29.0544C10.9165 25.9956 14.2458 23.8202 17.9999 22.8754V35.3748C17.9999 36.5351 18.4608 37.6479 19.2813 38.4684C20.1018 39.2889 21.2146 39.7498 22.3749 39.7498H66.1249C68.1279 39.7509 70.0699 40.4391 71.6266 41.6996C73.1833 42.96 74.2604 44.7164 74.678 46.6754C74.769 47.2649 74.8202 47.8597 74.8311 48.4561V48.4998H87.9999V30.9998C87.9999 29.8395 88.4608 28.7267 89.2813 27.9062C90.1018 27.0857 91.2146 26.6248 92.3749 26.6248C93.5352 26.6248 94.648 27.0857 95.4685 27.9062C96.289 28.7267 96.7499 29.8395 96.7499 30.9998V69.1498C96.7313 76.5691 99.4495 83.7346 104.384 89.2748C105.152 90.1389 105.547 91.2719 105.482 92.4261C105.417 93.5803 104.898 94.662 104.039 95.4348ZM79.2499 79.1248C79.2441 83.7643 77.3985 88.2121 74.1179 91.4928C70.8372 94.7734 66.3894 96.619 61.7499 96.6248H17.9999C-5.08261 96.0167 -5.06511 62.2286 17.9999 61.6248H61.7499C66.3912 61.6248 70.8424 63.4686 74.1243 66.7504C77.4061 70.0323 79.2499 74.4835 79.2499 79.1248ZM26.7499 79.1248C26.7499 77.9645 26.289 76.8517 25.4685 76.0312C24.648 75.2107 23.5352 74.7498 22.3749 74.7498C21.2146 74.7498 20.1018 75.2107 19.2813 76.0312C18.4608 76.8517 17.9999 77.9645 17.9999 79.1248C17.9999 80.2851 18.4608 81.3979 19.2813 82.2184C20.1018 83.0389 21.2146 83.4998 22.3749 83.4998C23.5352 83.4998 24.648 83.0389 25.4685 82.2184C26.289 81.3979 26.7499 80.2851 26.7499 79.1248ZM44.2499 79.1248C44.2499 77.9645 43.789 76.8517 42.9685 76.0312C42.148 75.2107 41.0352 74.7498 39.8749 74.7498C38.7146 74.7498 37.6018 75.2107 36.7813 76.0312C35.9608 76.8517 35.4999 77.9645 35.4999 79.1248C35.4999 80.2851 35.9608 81.3979 36.7813 82.2184C37.6018 83.0389 38.7146 83.4998 39.8749 83.4998C41.0352 83.4998 42.148 83.0389 42.9685 82.2184C43.789 81.3979 44.2499 80.2851 44.2499 79.1248ZM61.7499 79.1248C61.7499 77.9645 61.289 76.8517 60.4685 76.0312C59.648 75.2107 58.5352 74.7498 57.3749 74.7498C56.2146 74.7498 55.1018 75.2107 54.2813 76.0312C53.4608 76.8517 52.9999 77.9645 52.9999 79.1248C52.9999 80.2851 53.4608 81.3979 54.2813 82.2184C55.1018 83.0389 56.2146 83.4998 57.3749 83.4998C58.5352 83.4998 59.648 83.0389 60.4685 82.2184C61.289 81.3979 61.7499 80.2851 61.7499 79.1248ZM53.5249 10.6867C52.1456 7.60244 49.9029 4.98341 47.0677 3.14581C44.2325 1.30821 40.926 0.330616 37.5474 0.331055H37.6568C34.759 0.339167 31.9829 1.49689 29.9379 3.55003C27.893 5.60317 26.7464 8.3839 26.7499 11.2817V30.9998H62.6249L53.5249 10.6867Z" fill="black"/>
</svg>
