<svg width="1920" height="174" viewBox="0 0 1920 174" fill="none" xmlns="http://www.w3.org/2000/svg">
<path fill-rule="evenodd" clip-rule="evenodd" d="M24.7248 153.095C41.2081 167.919 65.685 173.014 100.5 173.014H195.73L197.095 122.523H134.022C126.474 126.692 116.307 128.776 103.521 128.776C87.4997 128.776 75.561 124.916 67.7045 117.196C60.002 109.321 56.1508 99.207 56.1508 86.8544C56.1508 75.4282 59.771 65.855 67.0113 58.1346C74.2515 50.2598 85.266 46.3223 100.055 46.3223C110.068 46.3223 119.85 48.4069 129.401 52.5759C139.106 56.7449 146.192 63.1528 150.66 71.7997C168.303 62.7384 183.807 55.8213 197.171 51.0483C197.443 64.1493 197.579 76.8249 197.579 89.0751C197.579 115.17 195.73 173.15 195.73 173.15H250.032V51.7856H328.135V173.15H516.988C516.988 170.385 517.147 166.301 517.382 161.686H662.986L662.986 173.15H713.129L713.128 125.901H702.268C702.114 117.872 702.037 105.751 702.037 89.5383C702.037 77.2686 702.127 65.2968 702.308 53.6229C726.019 52.8602 749.274 52.4022 772.073 52.2488V173.15H829.841V52.2488C848.068 52.3722 868.079 53.0428 887.73 53.7012C892.458 53.8597 897.165 54.0174 901.822 54.1666C902.052 66.1632 902.167 77.7993 902.167 89.0751C902.167 115.17 901.551 143.195 900.318 173.15H1143.55L1177.06 127.754L1210.33 173.15H1328.16V110.152H1413.2V173.15H1467.5L1467.49 172.919H1508.41L1564.33 46.4585L1560.17 172.919H1577.69L1577.68 173.15H1635.21V115.942C1648.77 115.942 1659.4 116.791 1667.1 118.49C1674.96 120.034 1681.5 123.585 1686.74 129.144C1689.98 132.695 1692.44 136.864 1694.14 141.651C1695.99 146.438 1697.68 152.382 1699.22 159.485C1700.76 165.97 1701.99 170.525 1702.92 173.15H1763.1L1774.65 140.03H1848.37C1853.3 153.309 1857.22 164.349 1860.15 173.15H1920L1854.84 5H1695.75C1684.05 21.676 1666.18 41.9035 1642.15 65.6823C1639.06 65.6823 1636.75 65.6051 1635.21 65.4507V5H1534.52L1478.37 134.934L1482.3 5H1413.2V67.9984H1328.16V5H1208.02L1177.06 46.6901L1145.87 5H649.352V117.777H571.249V5H337.444H195.73C196.306 19.0123 196.748 32.6022 197.055 45.7698C179.921 15.2566 148.126 0 101.672 0C66.8572 0 41.2081 8.02921 24.7248 24.0876C8.24161 40.146 0 61.9948 0 89.6338C0 117.118 8.24161 138.272 24.7248 153.095ZM518.207 128.274C491.79 129.63 449.714 130.461 391.978 130.765V106.678C399.372 106.523 410.31 106.446 424.79 106.446C449.284 106.446 464.122 106.909 490.31 107.836V67.9984C464.122 68.9248 449.284 69.3881 424.79 69.3881C410.31 69.3881 399.372 69.3109 391.978 69.1565V46.9217H518.299C518.63 61.4919 518.796 75.543 518.796 89.0751C518.796 103.805 518.599 115.497 518.207 128.274ZM954.852 130.765C1010.78 130.47 1082.55 129.682 1111.82 128.4L1144.25 86.9906L1112.4 46.9217H954.852V69.1565C962.246 69.3109 973.183 69.3881 987.664 69.3881C1012.16 69.3881 1037.5 68.9248 1063.69 67.9984V107.836C1037.5 106.909 1012.16 106.446 987.664 106.446C973.183 106.446 962.246 106.523 954.852 106.678V130.765ZM1274.02 169.197L1209.64 86.9906L1273.91 6.13061C1275.11 35.6606 1275.71 63.3087 1275.71 89.0751C1275.71 114.019 1275.15 140.726 1274.02 169.197ZM1726.49 92.7809C1729.02 94.8423 1731.38 96.9695 1733.57 99.1624L1769.29 6.33083L1698.76 76.7997C1708.93 80.8143 1718.17 86.1413 1726.49 92.7809ZM1835.2 103.898C1829.34 87.6854 1823.33 71.4726 1817.17 55.2598L1811.63 40.205C1806.23 54.2561 1798.3 75.4872 1787.83 103.898H1835.2Z" fill="#E8A35B"/>
</svg>
