<svg width="1720" height="736" viewBox="0 0 1720 736" fill="none" xmlns="http://www.w3.org/2000/svg">
<path d="M50 2.5H1356.4C1377.81 2.5 1395.15 19.849 1395.15 41.25C1395.15 65.4125 1414.74 85 1438.9 85H1670C1696.23 85 1717.5 106.266 1717.5 132.5V368V686C1717.5 712.234 1696.23 733.5 1670 733.5H860H633C606.766 733.5 585.5 712.234 585.5 686V633.319C585.5 604.324 561.995 580.819 533 580.819H50C23.7665 580.819 2.5 559.553 2.5 533.319V368V50C2.5 23.7665 23.7665 2.5 50 2.5Z" stroke="#111111" stroke-width="5"/>
</svg>
