<svg width="25" height="25" viewBox="0 0 25 25" fill="none" xmlns="http://www.w3.org/2000/svg">
<path d="M1.2641 9.96425C4.17883 16.3154 9.3579 21.3492 15.7872 24.0799L16.8196 24.5402C17.9628 25.0496 19.2491 25.1389 20.4517 24.7923C21.6543 24.4458 22.696 23.6857 23.3934 22.6459L24.7431 20.6345C24.9543 20.3191 25.0398 19.936 24.9827 19.5606C24.9257 19.1853 24.7302 18.8449 24.4349 18.6065L19.8621 14.9151C19.7028 14.7866 19.5193 14.6916 19.3224 14.6359C19.1256 14.5802 18.9195 14.5649 18.7166 14.5908C18.5137 14.6168 18.3181 14.6835 18.1416 14.787C17.9651 14.8905 17.8113 15.0286 17.6895 15.1931L16.2746 17.1026C12.6424 15.3077 9.70245 12.3654 7.90927 8.73073L9.81613 7.31491C9.98047 7.19301 10.1185 7.03915 10.2219 6.86254C10.3253 6.68594 10.392 6.49025 10.418 6.28721C10.4439 6.08418 10.4286 5.87799 10.3729 5.68103C10.3172 5.48407 10.2224 5.3004 10.094 5.14105L6.40473 0.565457C6.16652 0.269917 5.82634 0.0743462 5.45121 0.0172684C5.07607 -0.0398094 4.69317 0.045744 4.37793 0.257076L2.35417 1.61517C1.30874 2.31667 0.546131 3.36673 0.202201 4.57831C-0.141729 5.78989 -0.0446454 7.08429 0.476157 8.23093L1.2641 9.96425Z" fill="#E8A35B"/>
</svg>
