<svg width="98" height="105" viewBox="0 0 98 105" fill="none" xmlns="http://www.w3.org/2000/svg">
<path d="M25.218 0.914375L44.6041 53.2788V105H10.6448C5.12192 105 0.644775 100.523 0.644775 95V74.375H27.0413C29.4576 74.375 31.4163 72.4162 31.4163 70C31.4163 67.5838 29.4576 65.625 27.0413 65.625H0.644775V50.89C3.63841 47.3856 9.43664 39.0819 9.43664 35V14.8487C9.43664 8.9075 13.415 3.69688 19.1165 2.17875C21.187 1.6275 23.2619 1.22062 25.218 0.914375ZM62.1878 0H35.8122C35.7287 0 35.1616 0 34.2649 0.035L49 39.8431L63.7352 0.035C62.834 0 62.2714 0 62.1878 0ZM97.3553 65.625V50.8856C94.832 47.9412 88.5634 39.2569 88.5634 35V14.8487C88.5634 8.9075 84.5851 3.69688 78.8836 2.17875C76.8131 1.6275 74.7382 1.22062 72.782 0.914375L53.396 53.2788V105H87.3553C92.8782 105 97.3553 100.523 97.3553 95V74.375H70.9588C68.5425 74.375 66.5838 72.4162 66.5838 70C66.5838 67.5838 68.5425 65.625 70.9588 65.625H97.3553Z" fill="black"/>
</svg>
